<svg width="319" height="322" viewBox="0 0 319 322" fill="none" xmlns="http://www.w3.org/2000/svg">
<g clip-path="url(#clip0_5_1278)">
<path fill-rule="evenodd" clip-rule="evenodd" d="M159.235 23.8999C187.638 23.8508 215.336 32.826 238.404 49.5535L135.28 104.788C130.121 97.9404 122.697 93.1916 114.36 91.4072C106.023 89.6228 97.3276 90.9215 89.8597 95.0667L64.618 62.5815C89.9564 37.7235 123.91 23.8368 159.244 23.8805L159.235 23.8999ZM248.231 57.3548C256.084 64.2281 263.139 71.9788 269.261 80.4581L244.125 176.333C241.367 176.754 238.794 177.987 236.727 179.877L141.285 135.921C143.125 129.026 142.911 121.737 140.67 114.965L248.265 57.3451L248.231 57.3548ZM277.633 93.5831C288.863 113.585 294.903 136.127 295.194 159.116L255.412 179.48L255.172 179.281L277.652 93.5734L277.633 93.5831ZM294.8 172.27C293.538 188.325 289.46 204.026 282.758 218.642L259.702 195.79C260.332 194.146 260.658 192.399 260.663 190.636C260.663 190.355 260.663 190.055 260.663 189.778L294.8 172.27ZM277.277 229.357C272.349 238.026 266.499 246.127 259.832 253.517L202.772 243.873C202.519 241.726 201.939 239.631 201.053 237.662L240.104 203.64C241.901 204.516 243.86 205.003 245.855 205.068C247.85 205.133 249.836 204.775 251.685 204.018L277.297 229.357H277.277ZM249.807 263.515C224.919 286.016 192.67 298.439 159.259 298.395H158.706L177.367 266.322C181.954 267.505 186.805 267.048 191.095 265.029C195.386 263.01 198.852 259.554 200.904 255.248L249.841 263.491L249.807 263.515ZM145.843 297.731C126.29 295.817 107.386 289.618 90.4505 279.568L165.138 257.44C165.843 258.541 166.647 259.575 167.54 260.528L145.857 297.775L145.843 297.731ZM78.0002 271.2C68.5233 264.053 60.0019 255.699 52.648 246.346L96.0993 160.575C104.255 163.216 113.081 162.799 120.957 159.402L167.031 232.581C163.733 236.354 161.916 241.213 161.92 246.244V246.307L77.9762 271.18L78.0002 271.2ZM45.1644 235.849C30.8299 213.62 23.2204 187.657 23.2658 161.133C23.2658 160.798 23.2658 160.44 23.2658 160.1L75.44 142.932C77.9535 147.832 81.5493 152.084 85.9497 155.358L45.1836 235.868L45.1644 235.849ZM23.8903 147.751C26.6128 119.349 38.0766 92.5192 56.6732 71.0277L80.863 102.18C74.8118 108.787 71.4576 117.458 71.4724 126.456C71.4713 128.297 71.6078 130.135 71.8807 131.954L23.8903 147.751ZM136.51 146.398C134.833 148.916 132.85 151.211 130.607 153.23L176.661 226.404C179.492 225.579 182.466 225.377 185.381 225.814C188.296 226.251 191.083 227.315 193.555 228.935L232.601 194.918C232.174 193.523 231.956 192.072 231.953 190.612V190.355L136.51 146.398Z" fill="white"/>
<path fill-rule="evenodd" clip-rule="evenodd" d="M159.234 309.963C77.8222 309.963 11.8191 243.334 11.8191 161.156C11.8191 78.9782 77.8222 12.3496 159.234 12.3496C240.647 12.3496 306.659 78.9734 306.659 161.156C306.659 243.339 240.651 309.963 159.234 309.963ZM318.125 161.156C318.125 72.5782 246.987 0.776123 159.234 0.776123C71.4817 0.776123 0.353516 72.5782 0.353516 161.156C0.353516 249.734 71.4913 321.531 159.234 321.531C246.977 321.531 318.125 249.729 318.125 161.156Z" fill="white"/>
</g>
<defs>
<clipPath id="clip0_5_1278">
<rect width="317.771" height="320.755" fill="white" transform="translate(0.352539 0.775879)"/>
</clipPath>
</defs>
</svg>
